<svg xmlns="http://www.w3.org/2000/svg" version="1.1" xmlns:xlink="http://www.w3.org/1999/xlink" xmlns:svgjs="http://svgjs.dev/svgjs" width="1440" height="4000" preserveAspectRatio="none" viewBox="0 0 1440 4000"><g mask="url(&quot;#SvgjsMask1319&quot;)" fill="none"><rect width="1440" height="4000" x="0" y="0" fill="rgba(189, 110, 109, 1)"></rect><path d="M630 1449L629 -207" stroke-width="8" stroke="url(&quot;#SvgjsLinearGradient1320&quot;)" stroke-linecap="round" class="Down"></path><path d="M381 1365L380 2510" stroke-width="10" stroke="url(&quot;#SvgjsLinearGradient1321&quot;)" stroke-linecap="round" class="Up"></path><path d="M770 2949L769 5535" stroke-width="8" stroke="url(&quot;#SvgjsLinearGradient1321&quot;)" stroke-linecap="round" class="Up"></path><path d="M83 3064L82 2038" stroke-width="10" stroke="url(&quot;#SvgjsLinearGradient1320&quot;)" stroke-linecap="round" class="Down"></path><path d="M667 2038L666 4133" stroke-width="8" stroke="url(&quot;#SvgjsLinearGradient1320&quot;)" stroke-linecap="round" class="Down"></path><path d="M1269 1174L1268 -551" stroke-width="10" stroke="url(&quot;#SvgjsLinearGradient1322&quot;)" stroke-linecap="round" class="Down"></path><path d="M185 47L184 -1304" stroke-width="8" stroke="url(&quot;#SvgjsLinearGradient1323&quot;)" stroke-linecap="round" class="Down"></path><path d="M1046 1804L1045 3731" stroke-width="10" stroke="url(&quot;#SvgjsLinearGradient1322&quot;)" stroke-linecap="round" class="Down"></path><path d="M1193 3577L1192 619" stroke-width="10" stroke="url(&quot;#SvgjsLinearGradient1324&quot;)" stroke-linecap="round" class="Up"></path><path d="M263 2337L262 -482" stroke-width="10" stroke="url(&quot;#SvgjsLinearGradient1325&quot;)" stroke-linecap="round" class="Up"></path><path d="M590 232L589 1935" stroke-width="8" stroke="url(&quot;#SvgjsLinearGradient1325&quot;)" stroke-linecap="round" class="Up"></path><path d="M326 1226L325 136" stroke-width="10" stroke="url(&quot;#SvgjsLinearGradient1322&quot;)" stroke-linecap="round" class="Down"></path><path d="M177 3087L176 5300" stroke-width="10" stroke="url(&quot;#SvgjsLinearGradient1322&quot;)" stroke-linecap="round" class="Down"></path><path d="M650 2934L649 322" stroke-width="10" stroke="url(&quot;#SvgjsLinearGradient1325&quot;)" stroke-linecap="round" class="Up"></path><path d="M412 1026L411 3930" stroke-width="10" stroke="url(&quot;#SvgjsLinearGradient1326&quot;)" stroke-linecap="round" class="Up"></path><path d="M839 3829L838 1208" stroke-width="8" stroke="url(&quot;#SvgjsLinearGradient1323&quot;)" stroke-linecap="round" class="Down"></path><path d="M1323 2167L1322 880" stroke-width="10" stroke="url(&quot;#SvgjsLinearGradient1321&quot;)" stroke-linecap="round" class="Up"></path><path d="M1264 1989L1263 4605" stroke-width="8" stroke="url(&quot;#SvgjsLinearGradient1320&quot;)" stroke-linecap="round" class="Down"></path><path d="M1125 861L1124 3203" stroke-width="8" stroke="url(&quot;#SvgjsLinearGradient1320&quot;)" stroke-linecap="round" class="Down"></path><path d="M587 158L586 -1405" stroke-width="8" stroke="url(&quot;#SvgjsLinearGradient1325&quot;)" stroke-linecap="round" class="Up"></path><path d="M699 1520L698 304" stroke-width="10" stroke="url(&quot;#SvgjsLinearGradient1324&quot;)" stroke-linecap="round" class="Up"></path><path d="M536 784L535 -580" stroke-width="10" stroke="url(&quot;#SvgjsLinearGradient1324&quot;)" stroke-linecap="round" class="Up"></path><path d="M263 581L262 2132" stroke-width="10" stroke="url(&quot;#SvgjsLinearGradient1326&quot;)" stroke-linecap="round" class="Up"></path><path d="M187 3717L186 2227" stroke-width="10" stroke="url(&quot;#SvgjsLinearGradient1324&quot;)" stroke-linecap="round" class="Up"></path><path d="M70 114L69 -1092" stroke-width="8" stroke="url(&quot;#SvgjsLinearGradient1323&quot;)" stroke-linecap="round" class="Down"></path><path d="M361 766L360 -1739" stroke-width="6" stroke="url(&quot;#SvgjsLinearGradient1323&quot;)" stroke-linecap="round" class="Down"></path><path d="M1236 1173L1235 4023" stroke-width="8" stroke="url(&quot;#SvgjsLinearGradient1322&quot;)" stroke-linecap="round" class="Down"></path><path d="M645 116L644 1287" stroke-width="10" stroke="url(&quot;#SvgjsLinearGradient1323&quot;)" stroke-linecap="round" class="Down"></path><path d="M1081 2889L1080 1748" stroke-width="8" stroke="url(&quot;#SvgjsLinearGradient1324&quot;)" stroke-linecap="round" class="Up"></path><path d="M217 2452L216 636" stroke-width="8" stroke="url(&quot;#SvgjsLinearGradient1325&quot;)" stroke-linecap="round" class="Up"></path><path d="M457 3539L456 1884" stroke-width="10" stroke="url(&quot;#SvgjsLinearGradient1325&quot;)" stroke-linecap="round" class="Up"></path><path d="M945 2529L944 4193" stroke-width="6" stroke="url(&quot;#SvgjsLinearGradient1324&quot;)" stroke-linecap="round" class="Up"></path><path d="M1140 489L1139 -2328" stroke-width="10" stroke="url(&quot;#SvgjsLinearGradient1326&quot;)" stroke-linecap="round" class="Up"></path><path d="M867 112L866 1746" stroke-width="6" stroke="url(&quot;#SvgjsLinearGradient1322&quot;)" stroke-linecap="round" class="Down"></path><path d="M637 46L636 2578" stroke-width="6" stroke="url(&quot;#SvgjsLinearGradient1327&quot;)" stroke-linecap="round" class="Down"></path><path d="M970 1652L969 146" stroke-width="6" stroke="url(&quot;#SvgjsLinearGradient1323&quot;)" stroke-linecap="round" class="Down"></path></g><defs><mask id="SvgjsMask1319"><rect width="1440" height="4000" fill="#ffffff"></rect></mask><linearGradient x1="0%" y1="0%" x2="0%" y2="100%" id="SvgjsLinearGradient1320"><stop stop-color="rgba(246, 189, 96, 0)" offset="0"></stop><stop stop-color="rgba(246, 189, 96, 1)" offset="1"></stop></linearGradient><linearGradient x1="0%" y1="100%" x2="0%" y2="0%" id="SvgjsLinearGradient1321"><stop stop-color="rgba(247, 237, 226, 0)" offset="0"></stop><stop stop-color="rgba(247, 237, 226, 1)" offset="1"></stop></linearGradient><linearGradient x1="0%" y1="0%" x2="0%" y2="100%" id="SvgjsLinearGradient1322"><stop stop-color="rgba(247, 237, 226, 0)" offset="0"></stop><stop stop-color="rgba(247, 237, 226, 1)" offset="1"></stop></linearGradient><linearGradient x1="0%" y1="0%" x2="0%" y2="100%" id="SvgjsLinearGradient1323"><stop stop-color="rgba(132, 165, 157, 0)" offset="0"></stop><stop stop-color="rgba(132, 165, 157, 1)" offset="1"></stop></linearGradient><linearGradient x1="0%" y1="100%" x2="0%" y2="0%" id="SvgjsLinearGradient1324"><stop stop-color="rgba(132, 165, 157, 0)" offset="0"></stop><stop stop-color="rgba(132, 165, 157, 1)" offset="1"></stop></linearGradient><linearGradient x1="0%" y1="100%" x2="0%" y2="0%" id="SvgjsLinearGradient1325"><stop stop-color="rgba(245, 202, 195, 0)" offset="0"></stop><stop stop-color="rgba(245, 202, 195, 1)" offset="1"></stop></linearGradient><linearGradient x1="0%" y1="100%" x2="0%" y2="0%" id="SvgjsLinearGradient1326"><stop stop-color="rgba(246, 189, 96, 0)" offset="0"></stop><stop stop-color="rgba(246, 189, 96, 1)" offset="1"></stop></linearGradient><linearGradient x1="0%" y1="0%" x2="0%" y2="100%" id="SvgjsLinearGradient1327"><stop stop-color="rgba(245, 202, 195, 0)" offset="0"></stop><stop stop-color="rgba(245, 202, 195, 1)" offset="1"></stop></linearGradient></defs></svg>